# xmcd
#
# Track frame offsets: 
#        150
#        18558
#        30137
#        45908
#        63470
#        83244
#        94514
#        111073
#        124160
#        140925
#        153228
#        164765
#
# Disc length: 2423 seconds
#
# Revision: 0
# Processed by: cddbd v1.5.1PL0 Copyright (c) Steve Scherf et al.
# Submitted via: ExactAudioCopy v0.95a5
#
DISCID=9509750c
DTITLE=Ulrich Roski - Erste Hilfe
DYEAR=1900
DGENRE=Vocal
TTITLE0=Was für ein Dussel
TTITLE1=Fishy Blues
TTITLE2=Gambling Lady
TTITLE3=Hoch schlug die Gischt
TTITLE4=Erste Hilfe
TTITLE5=Das Leben auf dem Lande
TTITLE6=Lutz from the woods
TTITLE7=Maul nicht
TTITLE8=Ich wohn auf dem Müll
TTITLE9=Aber komisch ist es doch ...
TTITLE10=Das Schubert-Lied
TTITLE11=Sentimental Song
EXTD=
EXTT0=
EXTT1=
EXTT2=
EXTT3=
EXTT4=
EXTT5=
EXTT6=
EXTT7=
EXTT8=
EXTT9=
EXTT10=
EXTT11=
PLAYORDER=
